<svg xmlns="http://www.w3.org/2000/svg" width="17.451" height="21.503" viewBox="0 0 17.451 21.503">
<defs><style>.a-login-password{fill:currentColor;stroke-width:2px;}.a-login-password,.b-login-password{stroke:currentColor;stroke-miterlimit:10;}.b-login-password{fill:none;stroke-width:3px;}.c-login-password{fill:#fff;}</style>
</defs><g transform="translate(1 1.503)"><rect class="a-login-password" width="15.451" height="12.516" rx="2.25" transform="translate(0 6.484)"/>
<path class="b-login-password" d="M4.708,75.277a9.26,9.26,0,0,1,.385-5.037,5.368,5.368,0,0,1,5.368-3.9,5.314,5.314,0,0,1,5.135,3.9,9.376,9.376,0,0,1,.394,5.037" transform="translate(-2.534 -66.336)"/>
<path class="c-login-password" d="M12.948,79.653a2.174,2.174,0,1,0-3.4,1.789h0v2.264a1.253,1.253,0,1,0,2.505,0V81.443h0A2.183,2.183,0,0,0,12.948,79.653Z" transform="translate(-2.964 -67.909)"/></g></svg>