<svg xmlns="http://www.w3.org/2000/svg" xmlns:xlink="http://www.w3.org/1999/xlink" width="18" height="19" viewBox="0 0 18 19">
<defs><style>.a-login-user{fill:#fff;}.b-login-user{fill:currentColor;}.c-login-user{clip-path:url(#a);}</style>
<clipPath id="a"><ellipse class="a-login-user" cx="9" cy="9.152" rx="9" ry="9.152"/></clipPath>
</defs><ellipse class="b-login-user" cx="9" cy="9.152" rx="9" ry="9.152"/>
<g class="c-login-user" transform="translate(0 0.695)"><g transform="translate(1.5 3.043)">
<path class="a-login-user" d="M27.811,25.95a3.9,3.9,0,1,0-3.734,0A7.563,7.563,0,0,0,18.5,33.279a.355.355,0,1,0,.709,0,6.736,6.736,0,1,1,13.47,0,.355.355,0,1,0,.709,0A7.563,7.563,0,0,0,27.811,25.95Zm-5.057-3.484a3.191,3.191,0,1,1,3.19,3.244A3.235,3.235,0,0,1,22.754,22.465Z" transform="translate(-18.5 -18.5)"/></g></g></svg>